<mxfile host="app.diagrams.net" modified="2024-05-18T10:30:12.849Z" agent="Mozilla/5.0 (Windows NT 10.0; Win64; x64) AppleWebKit/537.36 (KHTML, like Gecko) Chrome/125.0.0.0 Safari/537.36" version="24.4.4" etag="4PwbLOC-MF7ZS6nHbbUT" type="github">
  <diagram name="第 1 页" id="D6W9PbEej2NKhWMfXhBJ">
    <mxGraphModel>
      <root>
        <mxCell id="0" />
        <mxCell id="1" parent="0" />
      </root>
    </mxGraphModel>
  </diagram>
</mxfile>
